<svg width="37" height="45" viewBox="0 0 37 45" fill="none" xmlns="http://www.w3.org/2000/svg">
<path d="M36.6665 21.581L19.7137 0.575674C19.5695 0.396346 19.3853 0.251316 19.175 0.151575C18.9647 0.0518343 18.7339 0 18.5 0C18.2661 0 18.0352 0.0518343 17.825 0.151575C17.6147 0.251316 17.4305 0.396346 17.2863 0.575674L0.333514 21.581C0.117708 21.8412 0 22.1656 0 22.5C0 22.8344 0.117708 23.1588 0.333514 23.419L17.2863 44.4243C17.4305 44.6037 17.6147 44.7487 17.825 44.8484C18.0352 44.9482 18.2661 45 18.5 45C18.7339 45 18.9647 44.9482 19.175 44.8484C19.3853 44.7487 19.5695 44.6037 19.7137 44.4243L36.6665 23.419C36.8823 23.1588 37 22.8344 37 22.5C37 22.1656 36.8823 21.8412 36.6665 21.581ZM20.0412 5.82701L33.0255 21.9186L20.0412 27.6763V5.82701ZM16.9588 27.6763L3.97452 21.9186L16.9588 5.82701V27.6763ZM16.9588 30.9772V39.173L6.67156 26.4197L16.9588 30.9772ZM20.0412 30.9772L30.3284 26.4197L20.0412 39.173V30.9772Z" fill="url(#paint0_linear_5226_2232)"/>
<defs>
<linearGradient id="paint0_linear_5226_2232" x1="18.5" y1="0" x2="18.5" y2="45" gradientUnits="userSpaceOnUse">
<stop stop-color="#FF9838"/>
<stop offset="1" stop-color="#FF66DD"/>
</linearGradient>
</defs>
</svg>
