<svg width="37" height="39" viewBox="0 0 37 39" fill="none" xmlns="http://www.w3.org/2000/svg">
<path d="M23.6916 19.6118C24.7945 20.7573 25.4189 22.1466 25.8699 24.0657L26.0668 24.9773L26.4194 26.8704C26.5947 27.7599 26.7306 28.2537 26.9196 28.6855C27.5105 30.0308 28.5544 31.4122 30.0611 32.8135C30.2077 32.9455 30.3271 33.1058 30.4121 33.285C30.4971 33.4642 30.5462 33.6589 30.5564 33.8575C30.5665 34.0562 30.5377 34.255 30.4714 34.4422C30.4052 34.6294 30.3029 34.8014 30.1705 34.9481C30.0381 35.0948 29.8783 35.2133 29.7003 35.2967C29.5224 35.3801 29.3298 35.4267 29.134 35.4338C28.9381 35.4409 28.7428 35.4084 28.5594 35.3381C28.376 35.2678 28.2083 35.1612 28.0659 35.0245C26.2776 33.3613 24.9934 31.6601 24.2214 29.9069C23.9279 29.2392 23.7487 28.6075 23.5399 27.548L23.1263 25.3491L23.0987 25.2291C22.7442 23.53 22.303 22.4605 21.5782 21.7068C20.174 20.2475 16.936 20.6333 16.0694 22.0227C14.9626 23.7998 14.6809 26.8124 15.5593 29.8509C16.2388 32.1978 17.1389 34.5087 18.2615 36.7816C18.3567 36.9583 18.4158 37.1526 18.4353 37.353C18.4549 37.5534 18.4345 37.7557 18.3753 37.9479C18.3161 38.1401 18.2194 38.3182 18.091 38.4716C17.9625 38.6251 17.8049 38.7507 17.6276 38.8409C17.4502 38.9312 17.2568 38.9843 17.0588 38.997C16.8608 39.0097 16.6623 38.9819 16.4752 38.915C16.2881 38.8482 16.1161 38.7438 15.9696 38.6081C15.8231 38.4724 15.705 38.3081 15.6224 38.125C14.4391 35.7413 13.4695 33.2545 12.7252 30.6945C11.6183 26.8724 11.9846 22.9702 13.5721 20.4194C15.449 17.4089 20.9421 16.7532 23.6916 19.6118ZM19.0316 24.2396C19.2256 24.2329 19.419 24.2651 19.6008 24.3344C19.7825 24.4036 19.949 24.5086 20.0908 24.6432C20.2326 24.7778 20.3468 24.9394 20.427 25.1188C20.5071 25.2983 20.5517 25.492 20.558 25.6889C20.6592 28.777 21.6478 31.7677 23.402 34.2928L23.7881 34.8246L24.3789 35.6042C24.6056 35.904 24.7123 36.2797 24.6778 36.6559C24.6432 37.0322 24.4699 37.3814 24.1926 37.6335C23.9153 37.8857 23.5544 38.0223 23.1821 38.0159C22.8098 38.0095 22.4537 37.8607 22.1849 37.5992L22.0391 37.4333L21.4483 36.6537C19.0791 33.5293 17.7351 29.7293 17.6057 25.7889C17.5924 25.3915 17.7352 25.0051 18.0026 24.7145C18.27 24.424 18.6401 24.2532 19.0316 24.2396ZM11.7266 14.0785C15.8863 10.954 21.3261 11.1239 24.9856 13.5107C26.8172 14.7062 28.2057 16.0995 29.1275 17.6947C29.326 18.0378 29.3821 18.4468 29.2835 18.8318C29.1849 19.2168 28.9396 19.5463 28.6016 19.7478C28.2637 19.9492 27.8607 20.0062 27.4814 19.9061C27.102 19.806 26.7774 19.557 26.5789 19.214C25.9053 18.0466 24.8497 16.9851 23.3883 16.0335C20.7057 14.2824 16.5933 14.1544 13.4854 16.4893C10.2573 18.9142 8.89836 23.0682 9.30408 27.4481C9.53058 29.9009 10.2573 32.3797 11.4962 34.8925C11.6676 35.2478 11.6936 35.6575 11.5687 36.0323C11.4438 36.407 11.178 36.7165 10.8293 36.8932C10.4806 37.0699 10.0772 37.0995 9.70698 36.9757C9.33681 36.8518 9.02987 36.5845 8.85306 36.2319C7.45665 33.3992 6.62354 30.5606 6.36159 27.7279C5.8692 22.3905 7.56301 17.207 11.7266 14.0785ZM29.807 22.6764C30.1979 22.6562 30.5807 22.7944 30.8713 23.0605C31.162 23.3266 31.3366 23.6989 31.357 24.0957C31.4181 25.3031 31.7115 26.2886 32.2276 27.0823C32.6609 27.7479 33.0429 28.1318 33.3364 28.2817L33.4565 28.3297C33.8316 28.4447 34.1463 28.7063 34.3313 29.0568C34.5164 29.4073 34.5566 29.8181 34.4433 30.1988C34.3299 30.5794 34.0722 30.8988 33.7269 31.0866C33.3815 31.2745 32.9768 31.3153 32.6018 31.2003C31.5244 30.8704 30.5987 30.0249 29.7597 28.7315C28.9424 27.4721 28.4953 25.9688 28.4066 24.2516C28.3966 24.055 28.4247 23.8583 28.4895 23.6727C28.5543 23.4871 28.6545 23.3163 28.7844 23.17C28.9142 23.0238 29.0712 22.9049 29.2463 22.8202C29.4214 22.7355 29.6113 22.6866 29.805 22.6764H29.807ZM15.128 7.50561C15.2076 7.68529 15.2516 7.87914 15.2574 8.07607C15.2632 8.27301 15.2307 8.46917 15.1617 8.65334C15.0927 8.83751 14.9887 9.00608 14.8555 9.14941C14.7223 9.29274 14.5626 9.40802 14.3855 9.48867C10.7615 11.1439 8.09478 13.5027 6.34386 16.5813C4.15177 20.4354 3.55893 24.9393 4.05132 28.7355C4.07667 28.9308 4.06386 29.1292 4.01364 29.3195C3.96342 29.5098 3.87676 29.6882 3.75861 29.8445C3.52001 30.1602 3.16763 30.3667 2.779 30.4187C2.58656 30.4444 2.39103 30.4314 2.20354 30.3804C2.01606 30.3294 1.84031 30.2415 1.68631 30.1216C1.37531 29.8794 1.17183 29.5217 1.12064 29.1273C0.553416 24.7274 1.22897 19.5758 3.78543 15.082C5.85936 11.4417 9.00274 8.66106 13.1762 6.75397C13.3531 6.67308 13.544 6.62835 13.7379 6.62234C13.9319 6.61634 14.1251 6.64918 14.3065 6.71898C14.4879 6.78878 14.654 6.89417 14.7953 7.02915C14.9366 7.16412 15.0503 7.32603 15.13 7.50561H15.128ZM19.7426 5.93236C23.3469 6.00633 26.9354 7.68753 30.4944 10.902C34.0848 14.1444 36.2474 18.5523 36.982 24.0557C37.0126 24.2528 37.0041 24.4542 36.957 24.6479C36.91 24.8416 36.8253 25.0239 36.7079 25.184C36.5905 25.3441 36.4428 25.4788 36.2735 25.5802C36.1042 25.6816 35.9166 25.7477 35.7218 25.7745C35.527 25.8014 35.3289 25.7886 35.139 25.7367C34.9492 25.6849 34.7714 25.5951 34.6162 25.4726C34.461 25.3501 34.3314 25.1974 34.2351 25.0235C34.1388 24.8495 34.0777 24.6578 34.0553 24.4595C33.4112 19.6378 31.5717 15.8896 28.5307 13.1429C25.4582 10.3682 22.5138 8.9889 19.6836 8.93093C19.4896 8.92699 19.2983 8.88432 19.1205 8.80533C18.9428 8.72635 18.7821 8.61261 18.6477 8.4706C18.5133 8.32859 18.4077 8.1611 18.3371 7.9777C18.2664 7.79429 18.2321 7.59855 18.2359 7.40166C18.2398 7.20477 18.2819 7.01059 18.3597 6.83019C18.4375 6.6498 18.5496 6.48673 18.6895 6.35029C18.8294 6.21385 18.9944 6.10672 19.1751 6.03502C19.3558 5.96331 19.5487 5.92843 19.7426 5.93236ZM6.20993 5.96035C6.33931 6.1074 6.43885 6.2789 6.50284 6.46505C6.56684 6.65119 6.59403 6.84831 6.58287 7.04514C6.57171 7.24196 6.52242 7.43462 6.43781 7.61208C6.3532 7.78954 6.23494 7.94832 6.08979 8.07934C5.55999 8.55511 5.00655 9.12484 4.4275 9.78652C3.88391 10.4102 3.32456 11.2178 2.76127 12.2114C2.66499 12.3833 2.53615 12.5341 2.38219 12.6553C2.22823 12.7764 2.05218 12.8654 1.86418 12.9172C1.67618 12.969 1.47994 12.9826 1.28676 12.9571C1.09358 12.9316 0.907268 12.8676 0.738561 12.7687C0.569854 12.6699 0.422081 12.5381 0.303748 12.3811C0.185415 12.224 0.0988612 12.0447 0.0490681 11.8536C-0.000724921 11.6624 -0.0127733 11.4631 0.0136171 11.2672C0.0400076 11.0713 0.104315 10.8827 0.202838 10.7121C0.776888 9.6747 1.45187 8.69829 2.21768 7.79747C2.86959 7.04983 3.50576 6.39814 4.12419 5.83841C4.26902 5.7074 4.43786 5.60662 4.62107 5.54185C4.80428 5.47707 4.99826 5.44956 5.19195 5.46088C5.38563 5.47221 5.57522 5.52214 5.74989 5.60784C5.92456 5.69354 6.08088 5.81333 6.20993 5.96035ZM19.1794 0.0311844C23.4986 0.237086 27.1166 1.43651 30.0709 3.75141C30.3812 3.99449 30.5836 4.35273 30.6337 4.74731C30.6837 5.14188 30.5773 5.54048 30.3378 5.8554C30.0983 6.17033 29.7453 6.37579 29.3566 6.42659C28.9678 6.47739 28.5751 6.36936 28.2648 6.12627C25.8128 4.20319 22.7797 3.20567 19.0415 3.02775C15.2934 2.84784 12.2249 3.59548 9.75707 4.98482C9.00077 5.41061 8.1519 5.19672 7.72451 4.49105C7.6203 4.32413 7.55015 4.13768 7.5182 3.94275C7.48626 3.74781 7.49317 3.54835 7.53853 3.35618C7.58389 3.164 7.66678 2.98302 7.78229 2.82394C7.89779 2.66486 8.04357 2.53091 8.21099 2.43004C11.2342 0.622902 14.872 -0.172718 19.1813 0.0311844H19.1794Z" fill="url(#paint0_linear_5226_2226)"/>
<defs>
<linearGradient id="paint0_linear_5226_2226" x1="18.5" y1="0" x2="18.5" y2="39" gradientUnits="userSpaceOnUse">
<stop stop-color="#FF9838"/>
<stop offset="1" stop-color="#FF66DD"/>
</linearGradient>
</defs>
</svg>
