<svg width="41" height="33" viewBox="0 0 41 33" fill="none" xmlns="http://www.w3.org/2000/svg">
<path d="M18.4414 9.70247C18.5132 10.151 18.5523 10.6127 18.5523 11.0216C18.5523 11.5493 18.5132 12.011 18.4414 12.4595L19.8901 13.7655C20.3468 14.181 20.5361 14.7813 20.2946 15.4145C20.1446 15.7047 19.9814 16.107 19.7987 16.4368L19.5964 16.793C19.3419 17.1228 19.1853 17.4394 18.9569 17.7494C18.585 18.2507 17.9324 18.4156 17.3451 18.2177L15.4984 17.6043C14.8002 18.1913 14.0041 18.6596 13.1362 18.9894L12.6859 20.9022C12.6141 21.5156 12.1443 22.0037 11.5309 22.0829C11.0937 22.1356 10.65 22.162 10.1997 22.162C9.74946 22.162 9.30572 22.1356 8.86852 22.0829C8.25512 22.0037 7.72656 21.5156 7.65478 20.9022L7.20452 18.9894C6.39536 18.6596 5.59925 18.1913 4.89776 17.6043L3.05627 18.2177C2.46963 18.4156 1.81577 18.2507 1.44382 17.7494C1.21282 17.4394 0.997477 17.1162 0.799102 16.7864L0.602032 16.4368C0.419971 16.107 0.254355 15.764 0.106357 15.4145C-0.135347 14.7813 0.049846 14.181 0.510676 13.7655L1.95803 12.4595C1.88494 12.011 1.78837 11.5493 1.78837 11.0216C1.78837 10.6127 1.88494 10.151 1.95803 9.70247L0.510676 8.3965C0.049846 7.9216 -0.135347 7.32138 0.106357 6.74754C0.254355 6.3386 0.419971 6.05432 0.60138 5.72255L0.799755 5.37627C0.997477 5.04318 1.21282 4.7213 1.44382 4.41195C1.81577 3.91397 2.46963 3.74841 3.05627 3.94365L4.89776 4.55706C5.59925 3.97399 6.39536 3.50437 7.20452 3.1759L7.65478 1.25849C7.72656 0.646392 8.25512 0.156321 8.86852 0.0811949C9.31023 0.0270425 9.75477 -7.18439e-05 10.1997 1.42961e-07C10.65 1.42961e-07 11.0937 0.0275707 11.5309 0.0811289C12.1443 0.156321 12.6141 0.646392 12.6859 1.25849L13.1362 3.1759C14.0041 3.50437 14.8002 3.97399 15.4984 4.55706L17.3451 3.94365C17.9324 3.74841 18.585 3.91397 18.9569 4.41195C19.1853 4.71998 19.3419 5.04054 19.5964 5.37165L19.7987 5.72716C19.9814 6.05762 20.1446 6.39796 20.2946 6.74754C20.5361 7.32138 20.3468 7.9216 19.8901 8.3965L18.4414 9.70247ZM10.1997 7.85564C8.47046 7.85564 7.06748 9.33311 7.06748 11.0216C7.06748 12.8289 8.47046 14.1876 10.1997 14.1876C11.929 14.1876 13.3319 12.8289 13.3319 11.0216C13.3319 9.33311 11.929 7.85564 10.1997 7.85564ZM31.401 31.0202C30.9573 31.0928 30.5005 31.1323 30.0372 31.1323C29.5739 31.1323 29.1171 31.0928 28.6734 31.0202L27.3813 32.4845C26.9115 32.9462 26.3177 33.1375 25.7499 32.8934C25.4041 32.7417 25.0648 32.5768 24.7385 32.3922L24.3861 32.1877C24.0598 31.9304 23.7466 31.7721 23.4399 31.5413C22.944 31.1653 22.7808 30.5057 22.9766 29.9121L23.5835 28.0455C23.0027 27.3397 22.5394 26.535 22.2131 25.6578L20.3207 25.2027C19.7139 25.1301 19.231 24.6552 19.1527 24.0352C19.1005 23.5933 19.0744 23.1448 19.0744 22.6897C19.0744 22.2346 19.1005 21.786 19.1527 21.3441C19.231 20.7241 19.7139 20.1899 20.3207 20.1173L22.2131 19.6622C22.5394 18.8443 23.0027 18.0396 23.5835 17.3339L22.9766 15.4672C22.7808 14.8736 22.944 14.214 23.4399 13.8381C23.7466 13.6072 24.0664 13.3302 24.3926 13.1851L24.7385 12.9872C25.0648 12.8025 25.3454 12.6376 25.7499 12.4859C26.3177 12.2419 26.9115 12.4332 27.3813 12.8949L28.6734 14.3591C29.1171 14.2866 29.5739 14.247 30.0372 14.247C30.5005 14.247 30.9573 14.2866 31.401 14.3591L32.6931 12.8949C33.1042 12.4332 33.698 12.2419 34.3244 12.4859C34.6703 12.6376 35.0096 12.8025 35.3359 12.9872L35.6817 13.1851C36.008 13.3302 36.3278 13.6072 36.6344 13.8381C37.1304 14.214 37.2935 14.8736 37.0978 15.4672L36.4909 17.3339C37.0717 18.0396 37.535 18.8443 37.8612 19.6622L39.7536 20.1173C40.3605 20.1899 40.8434 20.7241 40.9217 21.3441C40.9739 21.786 41 22.2346 41 22.6897C41 23.1448 40.9739 23.5933 40.9217 24.0352C40.8434 24.6552 40.3605 25.1301 39.7536 25.2027L37.8612 25.6578C37.535 26.535 37.0717 27.3397 36.4909 28.0455L37.0978 29.9121C37.2935 30.5057 37.1304 31.1653 36.6344 31.5413C36.3278 31.7721 36.0145 31.9304 35.6883 32.1877L35.3359 32.3922C35.0096 32.5768 34.6116 32.7417 34.3244 32.8934C33.698 33.1375 33.1042 32.9462 32.6931 32.4845L31.401 31.0202ZM33.1694 22.6897C33.1694 20.9418 31.7664 19.5237 30.0372 19.5237C28.3079 19.5237 26.905 20.9418 26.905 22.6897C26.905 24.4376 28.3079 25.8557 30.0372 25.8557C31.7664 25.8557 33.1694 24.4376 33.1694 22.6897Z" fill="url(#paint0_linear_5226_2238)"/>
<defs>
<linearGradient id="paint0_linear_5226_2238" x1="20.5" y1="0" x2="20.5" y2="33" gradientUnits="userSpaceOnUse">
<stop stop-color="#FF9838"/>
<stop offset="1" stop-color="#FF66DD"/>
</linearGradient>
</defs>
</svg>
