<svg width="33" height="37" viewBox="0 0 33 37" fill="none" xmlns="http://www.w3.org/2000/svg">
<path d="M7.23311 10.2595V8.48472C9.72278 7.85757 11.5689 5.66532 11.5689 3.05312L11.5702 0L8.67961 0.00123339L8.679 3.05435C8.67839 4.107 8.07033 5.01535 7.18483 5.49573C6.84811 4.1773 4.72206 4.17668 4.38839 5.49697C3.50228 5.01658 2.89483 4.10762 2.89606 3.05435L2.89361 0H0.00122213V3.05435C0.00183324 5.66593 1.84983 7.86065 4.34011 8.48533V10.2589C1.84922 10.8854 0.000611111 13.0795 0 15.6905L0.00122213 21.3077C0.00122213 23.9193 1.84739 26.114 4.33828 26.7418L4.33889 28.5153C1.84861 29.1412 0.00183345 31.3353 0.00244456 33.9469L0.0018332 37L2.89178 36.9988L2.893 33.9469C2.893 32.8936 3.50106 31.9847 4.38778 31.5043C4.72389 32.8233 6.85056 32.8233 7.183 31.503C8.06911 31.9828 8.67717 32.8918 8.67717 33.9444V37L11.5696 36.9988V33.9457C11.5689 31.3347 9.72094 29.1394 7.23067 28.5147V26.7418C9.72217 26.1152 11.5702 23.9205 11.5702 21.3089V15.6917C11.5708 13.0795 9.724 10.886 7.23311 10.2595ZM7.18361 23.7515C6.84872 22.4325 4.72267 22.4325 4.38594 23.7509C3.50044 23.2699 2.89361 22.3603 2.89361 21.3083V15.6923C2.89422 14.6391 3.50228 13.7295 4.38839 13.2497C4.72572 14.5694 6.84994 14.5687 7.18483 13.2503C8.07094 13.7307 8.67839 14.6391 8.67717 15.6923L8.67839 21.3083C8.67717 22.3616 8.06972 23.2705 7.18361 23.7515ZM28.6623 19.3936V17.6065C31.152 16.9756 32.9976 14.7661 32.9976 12.136L32.9988 6.47932C33.0012 3.85047 31.1526 1.64033 28.6593 1.00948V0.00123339L25.7681 0V1.00948C23.2778 1.6391 21.4304 3.84985 21.4304 6.47932V12.1372C21.4317 14.7667 23.2778 16.9774 25.7681 17.6077V19.3936C23.2784 20.0238 21.4304 22.2333 21.4292 24.8628L21.4304 30.5207C21.4304 33.1514 23.2772 35.3609 25.7687 35.9918L25.7681 36.9988L28.6605 37V35.9918C31.152 35.3609 33 33.1514 33 30.5219V24.8652C33 22.2339 31.1538 20.025 28.6623 19.3936ZM24.3247 12.1372L24.3234 6.47932C24.3228 5.43037 24.9162 4.52325 25.7864 4.03547C25.9789 5.5981 28.4509 5.59687 28.6422 4.03485C29.513 4.52263 30.107 5.43037 30.1088 6.48178L30.1076 12.1379C30.107 13.1979 29.4996 14.1124 28.6141 14.5965C28.2773 13.2694 26.1507 13.2694 25.8164 14.5971C24.9309 14.1124 24.3241 13.1973 24.3247 12.1372ZM28.6409 32.9664C28.4497 31.4031 25.9789 31.4031 25.7858 32.9652C24.9162 32.4767 24.3222 31.569 24.3228 30.5207V24.8652C24.3234 23.8039 24.9309 22.8888 25.817 22.4053C26.1556 23.733 28.2792 23.7324 28.6141 22.4047C29.4996 22.8888 30.107 23.8046 30.1052 24.8652L30.1064 30.5207C30.107 31.5702 29.5118 32.4786 28.6409 32.9664Z" fill="url(#paint0_linear_5226_2235)"/>
<defs>
<linearGradient id="paint0_linear_5226_2235" x1="16.5" y1="0" x2="16.5" y2="37" gradientUnits="userSpaceOnUse">
<stop stop-color="#FF9838"/>
<stop offset="1" stop-color="#FF66DD"/>
</linearGradient>
</defs>
</svg>
